<svg xmlns="http://www.w3.org/2000/svg" width="300" height="600" viewBox="0 0 300 600">
<rect width="100%" height="100%" fill="#f8fafc"/>
<rect x="0.0" y="0.0" width="300.0" height="600.0" rx="4" fill="#e0f2fe" stroke="#334155" stroke-width="1"/>
<text x="6.0" y="13.0" font-family="ui-sans-serif, system-ui, sans-serif" font-size="9" fill="#0f172a">root</text>
<rect x="0.0" y="0.0" width="300.0" height="55.0" rx="4" fill="#dcfce7" stroke="#334155" stroke-width="1"/>
<text x="6.0" y="13.0" font-family="ui-sans-serif, system-ui, sans-serif" font-size="9" fill="#0f172a">header</text>
<rect x="15.0" y="15.0" width="50.0" height="25.0" rx="4" fill="#fef3c7" stroke="#334155" stroke-width="1"/>
<text x="21.0" y="28.0" font-family="ui-sans-serif, system-ui, sans-serif" font-size="9" fill="#0f172a">top-1</text>
<rect x="125.0" y="15.0" width="50.0" height="25.0" rx="4" fill="#fef3c7" stroke="#334155" stroke-width="1"/>
<text x="131.0" y="28.0" font-family="ui-sans-serif, system-ui, sans-serif" font-size="9" fill="#0f172a">top-2</text>
<rect x="235.0" y="15.0" width="50.0" height="25.0" rx="4" fill="#fef3c7" stroke="#334155" stroke-width="1"/>
<text x="241.0" y="28.0" font-family="ui-sans-serif, system-ui, sans-serif" font-size="9" fill="#0f172a">top-3</text>
<rect x="0.0" y="55.0" width="300.0" height="485.0" rx="4" fill="#dcfce7" stroke="#334155" stroke-width="1"/>
<text x="6.0" y="68.0" font-family="ui-sans-serif, system-ui, sans-serif" font-size="9" fill="#0f172a">content</text>
<rect x="43.0" y="75.0" width="50.0" height="25.0" rx="4" fill="#fef3c7" stroke="#334155" stroke-width="1"/>
<text x="49.0" y="88.0" font-family="ui-sans-serif, system-ui, sans-serif" font-size="9" fill="#0f172a">item-01</text>
<rect x="98.0" y="75.0" width="50.0" height="25.0" rx="4" fill="#fef3c7" stroke="#334155" stroke-width="1"/>
<text x="104.0" y="88.0" font-family="ui-sans-serif, system-ui, sans-serif" font-size="9" fill="#0f172a">item-02</text>
<rect x="153.0" y="75.0" width="50.0" height="25.0" rx="4" fill="#fef3c7" stroke="#334155" stroke-width="1"/>
<text x="159.0" y="88.0" font-family="ui-sans-serif, system-ui, sans-serif" font-size="9" fill="#0f172a">item-03</text>
<rect x="208.0" y="75.0" width="50.0" height="25.0" rx="4" fill="#fef3c7" stroke="#334155" stroke-width="1"/>
<text x="214.0" y="88.0" font-family="ui-sans-serif, system-ui, sans-serif" font-size="9" fill="#0f172a">item-04</text>
<rect x="43.0" y="105.0" width="50.0" height="25.0" rx="4" fill="#fef3c7" stroke="#334155" stroke-width="1"/>
<text x="49.0" y="118.0" font-family="ui-sans-serif, system-ui, sans-serif" font-size="9" fill="#0f172a">item-05</text>
<rect x="98.0" y="105.0" width="50.0" height="25.0" rx="4" fill="#fef3c7" stroke="#334155" stroke-width="1"/>
<text x="104.0" y="118.0" font-family="ui-sans-serif, system-ui, sans-serif" font-size="9" fill="#0f172a">item-06</text>
<rect x="153.0" y="105.0" width="50.0" height="25.0" rx="4" fill="#fef3c7" stroke="#334155" stroke-width="1"/>
<text x="159.0" y="118.0" font-family="ui-sans-serif, system-ui, sans-serif" font-size="9" fill="#0f172a">item-07</text>
<rect x="208.0" y="105.0" width="50.0" height="25.0" rx="4" fill="#fef3c7" stroke="#334155" stroke-width="1"/>
<text x="214.0" y="118.0" font-family="ui-sans-serif, system-ui, sans-serif" font-size="9" fill="#0f172a">item-08</text>
<rect x="43.0" y="135.0" width="50.0" height="25.0" rx="4" fill="#fef3c7" stroke="#334155" stroke-width="1"/>
<text x="49.0" y="148.0" font-family="ui-sans-serif, system-ui, sans-serif" font-size="9" fill="#0f172a">item-09</text>
<rect x="98.0" y="135.0" width="50.0" height="25.0" rx="4" fill="#fef3c7" stroke="#334155" stroke-width="1"/>
<text x="104.0" y="148.0" font-family="ui-sans-serif, system-ui, sans-serif" font-size="9" fill="#0f172a">item-10</text>
<rect x="153.0" y="135.0" width="50.0" height="25.0" rx="4" fill="#fef3c7" stroke="#334155" stroke-width="1"/>
<text x="159.0" y="148.0" font-family="ui-sans-serif, system-ui, sans-serif" font-size="9" fill="#0f172a">item-11</text>
<rect x="208.0" y="135.0" width="50.0" height="25.0" rx="4" fill="#fef3c7" stroke="#334155" stroke-width="1"/>
<text x="214.0" y="148.0" font-family="ui-sans-serif, system-ui, sans-serif" font-size="9" fill="#0f172a">item-12</text>
<rect x="43.0" y="165.0" width="50.0" height="25.0" rx="4" fill="#fef3c7" stroke="#334155" stroke-width="1"/>
<text x="49.0" y="178.0" font-family="ui-sans-serif, system-ui, sans-serif" font-size="9" fill="#0f172a">item-13</text>
<rect x="98.0" y="165.0" width="50.0" height="25.0" rx="4" fill="#fef3c7" stroke="#334155" stroke-width="1"/>
<text x="104.0" y="178.0" font-family="ui-sans-serif, system-ui, sans-serif" font-size="9" fill="#0f172a">item-14</text>
<rect x="153.0" y="165.0" width="50.0" height="25.0" rx="4" fill="#fef3c7" stroke="#334155" stroke-width="1"/>
<text x="159.0" y="178.0" font-family="ui-sans-serif, system-ui, sans-serif" font-size="9" fill="#0f172a">item-15</text>
<rect x="208.0" y="165.0" width="50.0" height="25.0" rx="4" fill="#fef3c7" stroke="#334155" stroke-width="1"/>
<text x="214.0" y="178.0" font-family="ui-sans-serif, system-ui, sans-serif" font-size="9" fill="#0f172a">item-16</text>
<rect x="0.0" y="540.0" width="300.0" height="60.0" rx="4" fill="#dcfce7" stroke="#334155" stroke-width="1"/>
<text x="6.0" y="553.0" font-family="ui-sans-serif, system-ui, sans-serif" font-size="9" fill="#0f172a">footer</text>
<rect x="140.0" y="555.0" width="20.0" height="20.0" rx="4" fill="#fef3c7" stroke="#334155" stroke-width="1"/>
<rect x="100.0" y="575.0" width="100.0" height="10.0" rx="4" fill="#fef3c7" stroke="#334155" stroke-width="1"/>
</svg>
